HIERARCHY
ROOT joint_Root
{
  OFFSET 0 0 0
  CHANNELS 6 Xposition Yposition Zposition Zrotation Xrotation Yrotation
  JOINT Hips
  {
    OFFSET 0.847027 93.984 -452.225
    CHANNELS 6 Xposition Yposition Zposition Zrotation Xrotation Yrotation
    JOINT Spine
    {
      OFFSET 15.7357 0 0
      CHANNELS 6 Xposition Yposition Zposition Zrotation Xrotation Yrotation
      JOINT Chest
      {
        OFFSET 8.98455 -0.406207 0
        CHANNELS 6 Xposition Yposition Zposition Zrotation Xrotation Yrotation
        JOINT Neck
        {
          OFFSET 16.3773 0 0
          CHANNELS 6 Xposition Yposition Zposition Zrotation Xrotation Yrotation
          JOINT Head
          {
            OFFSET 6.45672 0 0
            CHANNELS 6 Xposition Yposition Zposition Zrotation Xrotation Yrotation
            End Site
            {
              OFFSET 0 0 0
            }
          }
        }
        JOINT Shoulder_L
        {
          OFFSET 12.9942 -0.242716 4.98039
          CHANNELS 6 Xposition Yposition Zposition Zrotation Xrotation Yrotation
          JOINT UpperArm_L
          {
            OFFSET 5.34809 0 0
            CHANNELS 6 Xposition Yposition Zposition Zrotation Xrotation Yrotation
            JOINT LowerArm_L
            {
              OFFSET 24.3286 1.87007e-05 0
              CHANNELS 6 Xposition Yposition Zposition Zrotation Xrotation Yrotation
              JOINT Hand_L
              {
                OFFSET 22.2916 0 0
                CHANNELS 6 Xposition Yposition Zposition Zrotation Xrotation Yrotation
                End Site
                {
                  OFFSET 0 0 0
                }
              }
            }
          }
        }
        JOINT Shoulder_R
        {
          OFFSET 12.9945 -0.242716 -4.98039
          CHANNELS 6 Xposition Yposition Zposition Zrotation Xrotation Yrotation
          JOINT UpperArm_R
          {
            OFFSET -5.34813 0 0
            CHANNELS 6 Xposition Yposition Zposition Zrotation Xrotation Yrotation
            JOINT LowerArm_R
            {
              OFFSET -24.3289 0.000322201 0
              CHANNELS 6 Xposition Yposition Zposition Zrotation Xrotation Yrotation
              JOINT Hand_R
              {
                OFFSET -22.2915 -0.000108084 0
                CHANNELS 6 Xposition Yposition Zposition Zrotation Xrotation Yrotation
                End Site
                {
                  OFFSET 0 0 0
                }
              }
            }
          }
        }
      }
    }
    JOINT UpperLeg_L
    {
      OFFSET -2.19248 -6.46944 0
      CHANNELS 6 Xposition Yposition Zposition Zrotation Xrotation Yrotation
      JOINT LowerLeg_L
      {
        OFFSET 39.0811 0 -1.23785e-05
        CHANNELS 6 Xposition Yposition Zposition Zrotation Xrotation Yrotation
        JOINT Foot_L
        {
          OFFSET 40.9854 0 -1.26872e-05
          CHANNELS 6 Xposition Yposition Zposition Zrotation Xrotation Yrotation
          JOINT Toes_L
          {
            OFFSET 11.7543 0 0
            CHANNELS 6 Xposition Yposition Zposition Zrotation Xrotation Yrotation
            End Site
            {
              OFFSET 0 0 0
            }
          }
        }
      }
    }
    JOINT UpperLeg_R
    {
      OFFSET -2.19251 6.46944 0
      CHANNELS 6 Xposition Yposition Zposition Zrotation Xrotation Yrotation
      JOINT LowerLeg_R
      {
        OFFSET -39.0811 -0.00228153 -0.0401928
        CHANNELS 6 Xposition Yposition Zposition Zrotation Xrotation Yrotation
        JOINT Foot_R
        {
          OFFSET -40.9854 0 0
          CHANNELS 6 Xposition Yposition Zposition Zrotation Xrotation Yrotation
          JOINT Toes_R
          {
            OFFSET -11.7543 0 0
            CHANNELS 6 Xposition Yposition Zposition Zrotation Xrotation Yrotation
            End Site
            {
              OFFSET 0 0 0
            }
          }
        }
      }
    }
  }
}
MOTION
Frames:	7
Frame Time:	0.0333333
0 0 0 0 0 -0 -5.75254 93.2903 -24.0965 92.5528 5.61373 -3.73667 15.7357 5.1072e-06 -5.51765e-07 93.3991 86.1381 -93.5665 8.98455 -0.406207 -4.3199e-07 -0.0550608 0.469293 -0.33436 16.3773 -1.3905e-06 -6.99897e-07 -1.25542 -6.66493 2.5226 6.45672 -1.25837e-06 -1.02172e-07 -2.79635 -7.89137 4.23735 12.9942 -0.242716 4.98039 -90.6713 1.89857 -85.5185 5.34809 -7.22636e-06 -6.2814e-07 -60.7038 -25.4604 15.3659 24.3286 1.87007e-05 4.90208e-06 -12.5319 -16.6263 -37.8423 22.2916 -9.88446e-07 4.63217e-06 30.7201 5.5856 -10.5169 12.9945 -0.242716 -4.98039 87.2349 11.0628 -90.8725 -5.34813 -1.25947e-06 -3.79883e-06 -59.725 -27.0327 4.60719 -24.3289 0.000322201 -8.65921e-06 -5.52883 -4.45813 -51.2328 -22.2915 -0.000108084 -4.47941e-06 27.0896 5.28675 0.440945 -2.19248 -6.46944 -1.22534e-07 -172.132 -0.847272 -13.8635 39.0811 -6.73843e-06 -1.23785e-05 0.118298 -0.109297 42.6785 40.9854 -6.48686e-06 -1.26872e-05 -4.61706 9.02488 -60.773 11.7543 -2.30145e-07 3.05095e-06 0.151287 -0.25411 -21.022 -2.19251 6.46944 -1.45247e-06 179.175 14.1857 164.861 -39.0811 -0.00228153 -0.0401928 0.0222647 -0.0410076 17.1426 -40.9854 7.72618e-06 5.99936e-06 1.25202 -3.83376 -56.1652 -11.7543 -5.6619e-06 -5.58687e-06 0.0827727 -0.0935026 -17.4922 
0 0 0 0 0 -0 -6.32683 93.7103 -21.7395 93.2164 7.21584 -4.01007 15.7357 5.1072e-06 -5.51765e-07 102.426 86.0627 -103.167 8.98455 -0.406207 -4.3199e-07 -0.0638318 1.74463 -1.48033 16.3773 -1.3905e-06 -6.99897e-07 -0.952062 -6.95962 1.95944 6.45672 -1.25837e-06 -1.02172e-07 -2.77049 -9.60086 3.58524 12.9942 -0.242716 4.98039 -90.4156 1.11383 -84.535 5.34809 -7.22636e-06 -6.2814e-07 -55.7979 -28.001 17.171 24.3286 1.87007e-05 4.90208e-06 -12.8782 -16.1614 -39.3998 22.2916 -9.88446e-07 4.63217e-06 31.6821 5.58687 -10.5863 12.9945 -0.242716 -4.98039 87.7333 9.6495 -91.7139 -5.34813 -1.25947e-06 -3.79883e-06 -57.7145 -29.1151 2.60884 -24.3289 0.000322201 -8.65921e-06 -4.60275 -3.1805 -55.425 -22.2915 -0.000108084 -4.47941e-06 27.5893 5.27813 0.677405 -2.19248 -6.46944 -1.22534e-07 -172.843 -2.38275 -15.8087 39.0811 -6.73843e-06 -1.23785e-05 0.0568285 -0.0686806 33.1814 40.9854 -6.48686e-06 -1.26872e-05 -5.17546 8.81303 -61.8485 11.7543 -2.30145e-07 3.05095e-06 0.142403 -0.237883 -20.7441 -2.19251 6.46944 -1.45247e-06 178.885 16.5465 167.893 -39.0811 -0.00228153 -0.0401928 0.0182284 -0.03714 14.4598 -40.9854 7.72618e-06 5.99936e-06 1.95061 -3.08458 -56.7515 -11.7543 -5.6619e-06 -5.58687e-06 0.0885249 -0.100129 -17.5568 
0 0 0 0 0 -0 -6.79648 93.8431 -19.5126 93.6164 8.87879 -4.51958 15.7357 5.1072e-06 -5.51765e-07 109.478 85.9488 -110.608 8.98455 -0.406207 -4.3199e-07 -0.098155 2.77859 -2.25693 16.3773 -1.3905e-06 -6.99897e-07 -0.882676 -7.20479 1.47216 6.45672 -1.25837e-06 -1.02172e-07 -2.71927 -10.7274 2.51537 12.9942 -0.242716 4.98039 -90.3937 1.01528 -83.8075 5.34809 -7.22636e-06 -6.2814e-07 -50.3467 -29.4506 18.9716 24.3286 1.87007e-05 4.90208e-06 -12.7013 -15.0412 -40.9745 22.2916 -9.88446e-07 4.63217e-06 31.987 5.5838 -10.4172 12.9945 -0.242716 -4.98039 88.0254 8.72556 -92.1966 -5.34813 -1.25947e-06 -3.79883e-06 -53.9027 -31.1674 1.06772 -24.3289 0.000322201 -8.65921e-06 -4.07147 -2.47875 -58.7108 -22.2915 -0.000108084 -4.47941e-06 27.9761 5.27385 0.794022 -2.19248 -6.46944 -1.22534e-07 -173.978 -3.76264 -18.2321 39.0811 -6.73843e-06 -1.23785e-05 0.0181412 -0.0259372 23.5766 40.9854 -6.48686e-06 -1.26872e-05 -5.34255 8.8417 -61.5452 11.7543 -2.30145e-07 3.05095e-06 0.150262 -0.252229 -20.9898 -2.19251 6.46944 -1.45247e-06 178.846 19.2817 169.754 -39.0811 -0.00228153 -0.0401928 0.0147631 -0.0241515 13.3435 -40.9854 7.72618e-06 5.99936e-06 2.19925 -2.10643 -58.001 -11.7543 -5.6619e-06 -5.58687e-06 0.0733993 -0.0827892 -17.3876 
0 0 0 0 0 -0 -7.10259 93.7513 -17.2203 93.7233 9.97528 -4.9929 15.7357 5.1072e-06 -5.51765e-07 115.55 85.7792 -116.91 8.98455 -0.406207 -4.3199e-07 -0.102984 3.73329 -2.71462 16.3773 -1.3905e-06 -6.99897e-07 -0.889442 -7.06526 1.1058 6.45672 -1.25837e-06 -1.02172e-07 -2.7373 -11.227 1.43087 12.9942 -0.242716 4.98039 -90.4822 1.19831 -83.0795 5.34809 -7.22636e-06 -6.2814e-07 -45.2806 -30.4345 20.8998 24.3286 1.87007e-05 4.90208e-06 -12.1657 -13.7262 -42.2571 22.2916 -9.88446e-07 4.63217e-06 32.3626 5.57921 -10.1702 12.9945 -0.242716 -4.98039 88.2351 8.00382 -92.522 -5.34813 -1.25947e-06 -3.79883e-06 -49.6367 -33.1983 -0.289792 -24.3289 0.000322201 -8.65921e-06 -3.61088 -2.03938 -60.5728 -22.2915 -0.000108084 -4.47941e-06 27.9552 5.27728 0.699883 -2.19248 -6.46944 -1.22534e-07 -175.089 -4.14187 -20.3469 39.0811 -6.73843e-06 -1.23785e-05 0.000240333 0.0096214 14.3162 40.9854 -6.48686e-06 -1.26872e-05 -5.92075 8.32238 -62.0902 11.7543 -2.30145e-07 3.05095e-06 0.152415 -0.256193 -21.0575 -2.19251 6.46944 -1.45247e-06 178.778 20.9084 171.127 -39.0811 -0.00228153 -0.0401928 0.0023969 0.0297413 13.3263 -40.9854 7.72618e-06 5.99936e-06 1.33084 -1.58011 -59.7674 -11.7543 -5.6619e-06 -5.58687e-06 0.0781927 -0.0882711 -17.4411 
0 0 0 0 0 -0 -7.22625 93.5059 -14.8309 93.7163 10.2186 -5.46328 15.7357 5.1072e-06 -5.51765e-07 120.641 85.6132 -122.193 8.98455 -0.406207 -4.3199e-07 -0.151789 4.57769 -3.0972 16.3773 -1.3905e-06 -6.99897e-07 -0.944156 -6.48084 0.76655 6.45672 -1.25837e-06 -1.02172e-07 -2.8269 -11.2439 0.784289 12.9942 -0.242716 4.98039 -90.4976 1.19053 -82.3171 5.34809 -7.22636e-06 -6.2814e-07 -41.2931 -31.6643 23.2001 24.3286 1.87007e-05 4.90208e-06 -11.5871 -12.7215 -42.9562 22.2916 -9.88446e-07 4.63217e-06 32.9942 5.58065 -10.2474 12.9945 -0.242716 -4.98039 88.4841 7.22776 -93.1222 -5.34813 -1.25947e-06 -3.79883e-06 -46.1551 -35.0367 -1.41836 -24.3289 0.000322201 -8.65921e-06 -3.5579 -1.94536 -61.3593 -22.2915 -0.000108084 -4.47941e-06 28.1371 5.27682 0.713245 -2.19248 -6.46944 -1.22534e-07 -175.686 -3.34466 -22.1023 39.0811 -6.73843e-06 -1.23785e-05 -0.00162483 0.0174956 5.90718 40.9854 -6.48686e-06 -1.26872e-05 -6.39789 6.84029 -62.5584 11.7543 -2.30145e-07 3.05095e-06 0.150517 -0.252724 -20.9982 -2.19251 6.46944 -1.45247e-06 178.718 21.0028 171.925 -39.0811 -0.00228153 -0.0401928 -0.00348998 0.0586815 14.3873 -40.9854 7.72618e-06 5.99936e-06 1.00476 -1.76732 -62.0274 -11.7543 -5.6619e-06 -5.58687e-06 0.0903494 -0.10223 -17.5772 
0 0 0 0 0 -0 -7.19979 93.1878 -12.3743 93.584 9.64811 -6.15562 15.7357 5.1072e-06 -5.51765e-07 125.472 85.4548 -127.222 8.98455 -0.406207 -4.3199e-07 -0.275874 5.39678 -3.48769 16.3773 -1.3905e-06 -6.99897e-07 -1.27191 -5.83382 0.597951 6.45672 -1.25837e-06 -1.02172e-07 -3.07835 -10.9879 0.453667 12.9942 -0.242716 4.98039 -90.454 1.05926 -81.7963 5.34809 -7.22636e-06 -6.2814e-07 -38.4562 -32.8645 25.9809 24.3286 1.87007e-05 4.90208e-06 -11.1311 -12.0506 -43.3021 22.2916 -9.88446e-07 4.63217e-06 33.5478 5.57928 -10.174 12.9945 -0.242716 -4.98039 88.7132 6.50051 -93.7773 -5.34813 -1.25947e-06 -3.79883e-06 -44.0042 -36.462 -2.67751 -24.3289 0.000322201 -8.65921e-06 -3.77187 -2.05838 -61.4034 -22.2915 -0.000108084 -4.47941e-06 28.3832 5.27659 0.719801 -2.19248 -6.46944 -1.22534e-07 -176.415 -3.70557 -24.8883 39.0811 -6.73843e-06 -1.23785e-05 -0.000651277 0.029723 0.943595 40.9854 -6.48686e-06 -1.26872e-05 -7.70338 4.30711 -62.2806 11.7543 -2.30145e-07 3.05095e-06 0.148974 -0.249883 -20.9496 -2.19251 6.46944 -1.45247e-06 178.679 20.5643 172.56 -39.0811 -0.00228153 -0.0401928 -0.0119894 0.0912113 15.2548 -40.9854 7.72618e-06 5.99936e-06 0.617836 -1.5818 -64.1746 -11.7543 -5.6619e-06 -5.58687e-06 0.117211 -0.133327 -17.8794 
0 0 0 0 0 -0 -7.0604 92.7705 -9.73968 93.3008 8.41034 -6.8922 15.7357 5.1072e-06 -5.51765e-07 129.904 85.3277 -131.868 8.98455 -0.406207 -4.3199e-07 -0.487626 6.13474 -3.90294 16.3773 -1.3905e-06 -6.99897e-07 -1.6987 -5.12093 0.717446 6.45672 -1.25837e-06 -1.02172e-07 -3.47899 -10.5758 0.225062 12.9942 -0.242716 4.98039 -90.409 0.942501 -81.5451 5.34809 -7.22636e-06 -6.2814e-07 -36.542 -33.818 29.1198 24.3286 1.87007e-05 4.90208e-06 -10.9661 -11.9424 -43.1191 22.2916 -9.88446e-07 4.63217e-06 33.5285 5.58007 -10.2162 12.9945 -0.242716 -4.98039 88.9026 5.92456 -94.4868 -5.34813 -1.25947e-06 -3.79883e-06 -43.4371 -37.3377 -3.85442 -24.3289 0.000322201 -8.65921e-06 -3.62866 -1.97483 -61.4521 -22.2915 -0.000108084 -4.47941e-06 28.1151 5.27868 0.662493 -2.19248 -6.46944 -1.22534e-07 -177.494 -5.21919 -28.5112 39.0811 -6.73843e-06 -1.23785e-05 -4.26095e-05 0.0596347 0.0485908 40.9854 -6.48686e-06 -1.26872e-05 -8.86642 0.89362 -62.1206 11.7543 -2.30145e-07 3.05095e-06 0.143264 -0.239448 -20.7708 -2.19251 6.46944 -1.45247e-06 178.619 20.1585 173.278 -39.0811 -0.00228153 -0.0401928 -0.0213023 0.124052 16.0054 -40.9854 7.72618e-06 5.99936e-06 0.26287 -0.650615 -66.3434 -11.7543 -5.6619e-06 -5.58687e-06 0.138738 -0.158502 -18.123 
